<svg width="1200" height="800" viewBox="0 0 1200 800" fill="none" xmlns="http://www.w3.org/2000/svg">
  <rect width="1200" height="800" rx="48" fill="#0F172A"/>
  <rect x="36" y="36" width="1128" height="728" rx="36" fill="url(#paint0_linear_7_8)"/>
  <circle cx="1024" cy="180" r="122" fill="#8B5CF6" fill-opacity="0.14"/>
  <circle cx="238" cy="626" r="166" fill="#22C55E" fill-opacity="0.12"/>
  <rect x="118" y="112" width="292" height="56" rx="28" fill="white" fill-opacity="0.14"/>
  <text x="154" y="148" fill="white" font-family="Arial, sans-serif" font-size="25" font-weight="700">Prompt + UI Library</text>
  <text x="118" y="258" fill="white" font-family="Arial, sans-serif" font-size="70" font-weight="700">5,000+</text>
  <text x="118" y="330" fill="#A78BFA" font-family="Arial, sans-serif" font-size="70" font-weight="700">Prompt + UI Blocks</text>
  <text x="118" y="394" fill="#CBD5E1" font-family="Arial, sans-serif" font-size="28">Landing, tool and dashboard packs with copy-paste flow</text>
  <rect x="674" y="176" width="352" height="444" rx="34" fill="#111827" fill-opacity="0.82" stroke="#94A3B8" stroke-opacity="0.24" stroke-width="2"/>
  <rect x="724" y="226" width="250" height="130" rx="26" fill="#0F172A"/>
  <rect x="756" y="252" width="94" height="18" rx="9" fill="#8B5CF6"/>
  <rect x="756" y="286" width="182" height="14" rx="7" fill="white" fill-opacity="0.32"/>
  <rect x="756" y="312" width="154" height="14" rx="7" fill="white" fill-opacity="0.32"/>
  <rect x="724" y="388" width="112" height="184" rx="22" fill="#0F172A"/>
  <rect x="854" y="388" width="120" height="84" rx="22" fill="#0F172A"/>
  <rect x="854" y="488" width="120" height="84" rx="22" fill="#0F172A"/>
  <rect x="754" y="420" width="54" height="14" rx="7" fill="#22C55E"/>
  <rect x="880" y="420" width="64" height="14" rx="7" fill="#38BDF8"/>
  <rect x="880" y="520" width="58" height="14" rx="7" fill="#F97316"/>
  <defs>
    <linearGradient id="paint0_linear_7_8" x1="76" y1="66" x2="1114" y2="736" gradientUnits="userSpaceOnUse">
      <stop stop-color="#111827"/>
      <stop offset="1" stop-color="#312E81"/>
    </linearGradient>
  </defs>
</svg>
